<svg xmlns="http://www.w3.org/2000/svg" viewBox="0 0 1080 1080"><g data-name="Contact Us" fill="#000000" class="color000 svgShape"><path fill="#ffffff" d="M822.35 678.89c10.06-57.47 29.48-185.52 29.48-185.52-9.2-24.69-7.63-65.43.61-65.13s15.86 28.55 15.86 28.55 22.49-58.45 30.73-55.46-1.64 39.25-1.94 40.4c.42-1 14.69-35.75 24.13-32.33s-4.15 38.24-4.83 40c.8-1.51 14.33-27 21.9-24.24s-10.12 37.4-10.57 38.29c.57-.74 12.82-16.89 18.56-14.46 5.9 2.48-34.52 62.3-34.52 62.3s-16 180.27-22 204.5c-7.3 29.69-23.28 54.45-54.19 54.45-26.25 0-55.28-16.44-71.88-28.56" class="colorfff svgShape"/><path fill="#67017b" d="M885.87 498.64A2 2 0 0 1 884 496c5.24-15.8-10.64-31.59-10.8-31.74a2 2 0 0 1 2.8-2.86 52.11 52.11 0 0 1 8.13 10.89c4.92 8.75 6.18 17.39 3.67 25a2 2 0 0 1-1.93 1.35Z" class="color67017b svgShape"/><path fill="#67017b" d="M835.58 772.22c-18.52 0-37.61-8-50.37-14.78a2 2 0 0 1 1.87-3.54c12.36 6.54 30.8 14.32 48.5 14.32 32.43 0 46.31-28.78 52.24-52.93 5.85-23.81 21.79-202.39 21.95-204.2a2 2 0 0 1 .34-.94c17-25.17 34.17-53.55 34.76-59.45-2.84.06-9.35 5.84-15.53 13.9a2 2 0 0 1-2.67.49 2 2 0 0 1-.73-2.58c7.27-14.16 13.72-30.72 12-35-.15-.38-.28-.43-.36-.46-3.34-1.21-11.88 9-19.45 23.3a2 2 0 0 1-3.64-1.66c3.78-9.69 10.16-29.7 7.28-36a2.23 2.23 0 0 0-1.27-1.34c-4.8-1.74-14.94 14.84-21.59 31.21a2 2 0 0 1-3.79-1.27c5.24-19.72 6.67-36.75 3.19-38-.12 0-4.2.2-16.4 26.53-6.35 13.7-11.72 27.62-11.77 27.76a2 2 0 0 1-3.8-.19c-3.53-12.9-9.89-26.93-14-27.07-.39 0-.87.59-1.06.85-5 6.9-5.66 39.93 2.41 61.58a2 2 0 0 1 .1 1c-.19 1.28-19.54 128.73-29.49 185.56a2 2 0 1 1-3.94-.69c9.62-55 28-176.07 29.4-185-8.1-22.24-7.87-56.31-1.72-64.83a5.19 5.19 0 0 1 4.45-2.51c7.16.26 13.14 15.49 16 24.46 2.25-5.57 6-14.7 10.2-23.61 12.41-26.55 17.55-28.87 21-27.64 5.57 2 5.21 13.54 3.19 25.36 5.39-9.77 12.62-19.6 19-17.29 7.65 2.78 3.93 18.34 1.79 26.19 4.89-6.66 10.59-12.16 15.29-10.45a4.62 4.62 0 0 1 2.74 2.7c1.92 4.92-2.15 16.39-6.27 25.85 4.06-3.65 8.34-6.13 11.63-4.74a2.9 2.9 0 0 1 1.65 1.89c.49 1.67 1.52 5.13-17 35-8 13-16.39 25.48-18 27.92-1.13 12.65-16.18 180.59-22 204.28-9 36.67-28.41 56.02-56.13 56.02Z" class="color67017b svgShape"/><path fill="#ffc600" d="M352.9 975.75c4.06-115.31 13.57-228.31 26.47-339.88l-113.45 5.48c-13-53.23 4.73-128.93 4.73-128.93L496.5 496l86.5 2.59c24.4 1.11 84.1 7.35 122 32.93 69.85 47.12 119.72 126.78 119.72 126.78-22.21 43.71-49.91 77.07-78.25 91-74-77.31-70.58-73.65-70.53-74-15.52 93-9.67 201.56-6.56 311.36-129.19 8.64-240.66 8.07-316.48-10.91Z" class="colorffc600 svgShape"/><path fill="#ffffff" d="M263.92 633.93s-76.25 7.07-81.82-51.39c-4.14-43.58 35-73 67.56-110 37-42.09 77-80.34 77-80.34l47.3 37.16-111.23 143.18Z" class="colorfff svgShape"/><path fill="#67017b" d="M262.73 574.54a2 2 0 0 1-1.58-3.23L363.5 439.5a2 2 0 0 1 3.16 2.45L264.31 573.76a2 2 0 0 1-1.58.78ZM234.74 634.38c-41.78-7.27-52.77-32.1-54.63-51.65-4.25-44.63 35.71-74.71 68-111.54 25.51-29.05 52.56-56.36 66.41-70.06a2 2 0 0 1 2.82 2.85c-13.82 13.65-40.8 40.89-66.23 69.85-31.89 36.31-71.11 66-67.06 108.52 3.13 32.91 29.64 44.31 51.33 48.09a2 2 0 1 1-.69 3.94ZM390.46 444.58c0-.1 2.07 1.62-56.06-43.8a13.36 13.36 0 0 1-2.3-18.72l83.49-106.85a13.33 13.33 0 0 1 18.71-2.3l56.07 43.8a13.36 13.36 0 0 1 2.3 18.72l-83.49 106.85a13.35 13.35 0 0 1-18.72 2.3Zm2.47-3.15a9.34 9.34 0 0 0 13.1-1.61L489.51 333a9.34 9.34 0 0 0-1.61-13.1l-56.06-43.8a9.34 9.34 0 0 0-13.1 1.61l-83.49 106.82a9.35 9.35 0 0 0 1.61 13.1c56.14 43.82 56.07 43.9 56.07 43.8Z" class="color67017b svgShape"/><rect width="77.3" height="142.84" x="373.73" y="287.32" fill="#08c7d1" rx="3.4" transform="rotate(38 412.387 358.75)" class="color08c7d1 svgShape"/><path fill="#ffc600" d="M779.67 399.69a35 35 0 1 1 35-35 35 35 0 0 1-35 35Zm0-66a31 31 0 1 0 31 31 31 31 0 0 0-31-30.98ZM89.51 469.44a2 2 0 0 1-1.42-3.44l57.13-57.12a2 2 0 0 1 2.83 2.83l-57.13 57.14a2 2 0 0 1-1.41.59Z" class="colorffc600 svgShape"/><path fill="#ffc600" d="M146.63 469.44a2 2 0 0 1-1.41-.59l-57.13-57.12a2 2 0 1 1 2.83-2.83l57.13 57.1a2 2 0 0 1-1.42 3.44ZM1005.49 775.84H926.9a2 2 0 0 1-1.73-3l39.29-68.06a2 2 0 0 1 3.47 0l39.29 68.06a2 2 0 0 1-1.73 3Zm-75.12-4H1002l-35.83-62.06Z" class="colorffc600 svgShape"/><path fill="#f75028" d="M566.37 171.34a2 2 0 0 1-2-2.2l4.53-46.67a2 2 0 1 1 4 .38l-4.53 46.68a2 2 0 0 1-2 1.81ZM597.62 183.05a2 2 0 0 1-1.63-3.16l27.27-38.16a2 2 0 1 1 3.25 2.33l-27.26 38.15a2 2 0 0 1-1.63.84ZM614.09 211a2 2 0 0 1-.83-3.82l47.43-21.57a2 2 0 0 1 1.66 3.64C611.57 212.32 614.73 211 614.09 211Z" class="colorf75028 svgShape"/><path fill="#08c7d1" d="M971.88 290.47H694a2 2 0 0 1-1.53-3.29l37.66-44.77V105.87a23.22 23.22 0 0 1 23.19-23.19h218.3a23.21 23.21 0 0 1 23.19 23.19v161.41a23.22 23.22 0 0 1-22.93 23.19Zm-273.56-4h273.3a19.21 19.21 0 0 0 19.19-19.19V105.87a19.21 19.21 0 0 0-19.19-19.19H753.35a19.21 19.21 0 0 0-19.19 19.19v137.27a2 2 0 0 1-.47 1.29Z" class="color08c7d1 svgShape"/><path fill="#08c7d1" d="M940 147.42H782.82a2 2 0 0 1 0-4H940a2 2 0 0 1 0 4ZM940 190.79H782.82a2 2 0 0 1 0-4H940a2 2 0 0 1 0 4ZM897.66 234.17H782.82a2 2 0 0 1 0-4h114.84a2 2 0 0 1 0 4Z" class="color08c7d1 svgShape"/><path fill="#67017b" d="m745 750.7-98.89-103.39a2 2 0 1 1 2.89-2.76l97.89 102.31c26.51-13.63 53.25-44.94 75.52-88.45-5.9-9.14-53.94-81.67-118.54-125.27-24.44-16.5-58-24.57-81.86-28.45a2 2 0 1 1 .64-3.94c24.25 3.93 58.42 12.17 83.46 29.07 69.4 46.85 119.8 126.61 120.3 127.41a2 2 0 0 1 .09 2c-23.13 45.53-51.24 78.17-79.14 91.91a2 2 0 0 1-2.36-.44ZM669.37 988.72a2 2 0 0 1-2-1.94c-2.74-96.86-7.73-189.94 1.4-274.38a2 2 0 0 1 4 .43c-9.16 84.72-4.06 179.18-1.39 273.83a2 2 0 0 1-2.01 2.06ZM265.92 643.34a2 2 0 0 1-1.94-1.52c-4.13-16.89-5.62-37.7-4.43-61.85a2 2 0 1 1 4 .19c-1.13 23 .2 42.88 3.94 59.1l81.51-3.93a2 2 0 1 1 .19 4c-95.55 4.61-81.96 4.01-83.27 4.01ZM325.83 510.4a2 2 0 0 1-.15-4l131.81-9.59a2 2 0 1 1 .29 4ZM352.9 977.75a2 2 0 0 1-2-2.07c4.17-118.27 14.32-242 31-378.35a2 2 0 1 1 4 .49c-16.7 136.21-26.85 259.85-31 378a2 2 0 0 1-2 1.93Z" class="color67017b svgShape"/><path fill="#ffffff" d="m591 375.13-8 123.43s-40.86 52.81-75.58 45.53c-20.09-4.21-12.1-46.26-12.1-46.26l13.74-57.43Z" class="colorfff svgShape"/><path fill="#67017b" d="M507 546.05c-21.75-4.56-14-46.8-13.64-48.59l13.76-57.53a2 2 0 0 1 3.89.93l-13.74 57.44a103.61 103.61 0 0 0-1.43 21.05c.64 13.59 4.67 21.25 12 22.78 31.39 6.59 69-39.11 73.21-44.32l2.61-44.73a2 2 0 0 1 4 .23L585 498.68a1.93 1.93 0 0 1-.41 1.1 192 192 0 0 1-25.06 25.8C545 537.87 525.57 549.94 507 546.05Z" class="color67017b svgShape"/><path fill="#ffffff" d="M537.34 446.34c-26.05 11.56-55.37 15.73-80 10.33C403.06 444.75 415.72 372 419.79 326c6.68-75.38 61.93-91.88 115-77.43s83.57 72.27 68.09 129.13c-4.28 15.73-13.21 29.7-25 41.43" class="colorfff svgShape"/><path fill="#67017b" d="M457 458.62c-51.25-11.25-45-74.12-40.38-120 .45-4.48.87-8.7 1.23-12.77 2.87-32.39 14.59-56 34.85-70.07 21.05-14.66 50.42-17.9 82.69-9.11 53.38 14.53 85.49 72.84 69.49 131.59-4.19 15.42-12.79 29.65-25.55 42.32a2 2 0 1 1-2.82-2.84c12.26-12.16 20.5-25.8 24.51-40.53 15.11-55.5-14.34-112.43-66.68-126.68-31.16-8.53-59.34-5.47-79.41 8.47-19.23 13.4-30.38 36-33.14 67.15-4.37 49.22-15.64 117.2 36 128.54 23.7 5.2 52.39 1.48 78.73-10.21a2 2 0 1 1 1.62 3.65c-24.92 11.1-54.82 16.28-81.14 10.49Z" class="color67017b svgShape"/><path fill="#67017b" d="M465 393.58c-.69 0-9.43-.12-11.56-6.07-2.08-5.79 8.36-13.59 11.61-15.85a2 2 0 0 1 2.28 3.29c-5.35 3.71-10.81 9.3-10.13 11.21.92 2.55 5.25 3.42 7.81 3.42a2 2 0 1 1 0 4ZM442.29 358.77a2 2 0 0 1-1.93-2.51l2-7.44a2 2 0 1 1 3.87 1l-2 7.44a2 2 0 0 1-1.94 1.51ZM446 327.7a2 2 0 0 1-1.48-3.34c1.94-2.15 7.1-5.33 12.7-2a2 2 0 0 1-2.05 3.43c-4.22-2.53-7.54 1.07-7.68 1.22a2 2 0 0 1-1.49.69ZM498.46 368.64a2 2 0 0 1-1.93-2.52l2-7.44a2 2 0 1 1 3.87 1l-2 7.44a2 2 0 0 1-1.94 1.52ZM512.11 338.4a2 2 0 0 1-1.68-.92c-.29-.44-2.93-4.22-7.38-2.5a2 2 0 1 1-1.45-3.72c6.09-2.37 10.64 1.62 12.2 4.07a2 2 0 0 1-1.69 3.07ZM449.62 409.76a2 2 0 0 1 2.67-2.34c3 1.18 15.86 4 30.89 2.75a2 2 0 0 1 2.06 2.64c-6.52 19.08-30.45 17.76-35.62-3.05Zm5.08 2.52c1.7 3.92 5.37 9.5 12.61 10s11-4.45 12.88-7.88a96.35 96.35 0 0 1-25.49-2.12Z" class="color67017b svgShape"/><path fill="#67017b" d="M483.35 412.16c-15.63 1.33-28.69-1.65-31.79-2.88 1.25 5.05 5.61 14.31 15.62 15 9.2.59 14.33-6.74 16.17-12.12ZM584.3 444.73c-3.09-4-1.57-13.67 1.18-29.14 2.95-16.6 6.6-37.12-.9-40.46-1.94 1.44-4.69 4-7.36 6.45-7.63 7-9.79 8.74-11.85 7.93a2.48 2.48 0 0 1-1.54-2.19c-2.24-29.88-25-40.79-18.4-75.25-17.54 3.79-74.11 2.82-118.08-20.11-30.59-12.08-31.32-63-11.78-83.3 40.86-42.49 175.86-31.26 198.34 45.68 59 15.5 45.41 147.69-25 191.93-1.3.84-3.51-.13-4.61-1.54Zm.45-73.76c12.17 3.13 8.18 25.55 4.67 45.32-.78 4.38-4.61 23.54-1.84 26.12 68.21-43.77 79.62-171.55 24.27-184.41a2 2 0 0 1-1.48-1.42c-20.56-74.78-152.9-85.66-191.91-45.09-17.76 18.46-17.32 66 10.45 76.84 2 .78 27.26 15.83 72.88 20.37 23.4 2.33 40.72.66 45.55-1.27a2 2 0 0 1 2.66 2.27c-8.14 34.41 14.25 44.88 17.58 75 4.2-3.24 11.63-10.91 15.55-13.48a2 2 0 0 1 1.62-.22Zm-16.93 16Z" class="color67017b svgShape"/><path fill="#67017b" d="M548.08 309.24c-8.53 36.1 15.4 46.63 17.75 77.93.25 3.36 13.09-10.76 18.43-14.26 18.64 4.79-8.65 70.76 3.62 71.67 69.76-43.86 82.39-175.06 24.42-188.58-21.06-76.58-155.4-87.43-195.3-45.95-18.55 19.29-18.18 68.6 11.17 80.09 47.24 24.68 108.58 23.63 119.91 19.1Z" class="color67017b svgShape"/><path fill="#ffffff" d="M575.09 419.61c3.88 4.92 8.91 9.18 15.42 11 16.17 4.4 34.2-9.18 39.93-30.23 4.4-16.17-7.3-34.69-24.14-34.29-6.75.16-14.77 2.52-22 6.86" class="colorfff svgShape"/><path fill="#67017b" d="M573.52 420.85a2 2 0 1 1 3.14-2.48c17.79 22.54 44.78 7.43 51.85-18.56 4-14.78-6.6-32.14-22.17-31.76-6.63.16-14.31 2.56-21.06 6.58a2 2 0 0 1-2-3.44c7.32-4.36 15.71-7 23-7.14 18.35-.42 30.83 19.53 26.12 36.81-8 29.31-39 45.14-58.88 19.99Z" class="color67017b svgShape"/><path fill="#67017b" d="M591.27 414.29a2 2 0 0 1-.89-3.8c10.82-5.38 5.7-13-2.85-11a2 2 0 0 1-2.43-2.27c2-12.41 9.94-15.05 14.49-15.51 8.36-.86 17.69 4.08 19.47 8.72a2 2 0 1 1-3.74 1.43c-1.7-4.44-21-13-25.68 3.31 11.21-.46 16.41 12 2.52 18.87a2 2 0 0 1-.89.25Z" class="color67017b svgShape"/><path fill="#ffffff" d="M399.31 307.45c10 6.38 11.65 12.68 9.43 15.3-5.11 6-19.63.11-19.63.11s11.48 8.48 7 14.39c-4.25 5.57-17.37-1.28-17.37-1.28s7 9 2.3 11.93c-6.7 4.19-15.44-1.88-15.44-1.88 5.73 8.5-.16 18.55-11.47 8.43-6.39-5.72-.48-17.08 4.72-17.14-.33-4.78 1.71-13.8 10.23-12.77-.1-6.4 4.84-13 11.09-10.79 0-5.67 8.48-8.68 12.57-8.41a13.6 13.6 0 0 1 6.57 2.11Z" class="colorfff svgShape"/><path fill="#67017b" d="M362.59 360.68c-2.41 0-5.69-1.06-9.81-4.74-7-6.23-2.23-18 4-20.25.21-6.65 3.61-12.86 10.37-13.21.78-6.12 5.36-11.71 11.38-11.12a9.2 9.2 0 0 1 2.51-3.75 17.79 17.79 0 0 1 11.79-4.26 15.53 15.53 0 0 1 7.53 2.42c6.53 4.16 10.48 8.83 11.14 13.17a6.3 6.3 0 0 1-1.25 5.11c-3.28 3.87-9.13 3.83-14.13 2.89 2.8 3.64 4.29 7.91 1.54 11.52-3.18 4.17-9.49 3.19-14.19 1.66 1.55 3.57 1.88 7.41-1.41 9.48-4.25 2.66-9 1.89-12.55.62 1.16 5.47-1.51 10.46-6.92 10.46Zm5.15-34.22a5.65 5.65 0 0 0-4.05 1.53c-2.26 2.15-3.07 6.26-2.87 9.18a2 2 0 0 1-2 2.14c-1.41 0-3.66 2-4.84 5.11-.48 1.28-1.79 5.65 1.44 8.54 3.85 3.45 7.35 4.63 9.13 3.07 1.62-1.4 1.83-5.2-.65-8.89a2 2 0 0 1 2.8-2.76c.07.05 7.74 5.26 13.23 1.83 2.13-1.34-1.27-7-2.82-9a2 2 0 0 1 2.51-3c3.79 2 12.42 5 14.85 1.83a3 3 0 0 0 .6-2.39c-.5-3.53-5.35-7.82-7.17-9.17a2 2 0 0 1 1.94-3.46c3.42 1.39 13.95 4.46 17.35.45a2.44 2.44 0 0 0 .35-1.92c-.8-5.29-9.54-10.53-9.34-10.4a11.5 11.5 0 0 0-5.64-1.8c-3.6-.25-10.41 2.48-10.44 6.43a2 2 0 0 1-2.67 1.87c-4.78-1.72-8.5 3.81-8.42 8.87a2 2 0 0 1-.67 1.52c-.81.75-1.57.42-2.62.42Z" class="color67017b svgShape"/><path fill="#f75028" d="M850.31 1050.6a104.3 104.3 0 0 1-51.89-13.8 2 2 0 0 1 2-3.47 100.48 100.48 0 1 0-20-15.09 2 2 0 1 1-2.79 2.87 104.29 104.29 0 1 1 72.67 29.49Z" class="colorf75028 svgShape"/><path fill="#f75028" d="M924.64 989.07a85.75 85.75 0 0 1-148.66 0 85.76 85.76 0 0 1 148.66 0Z" class="colorf75028 svgShape"/><circle cx="850.31" cy="912.31" r="37.51" fill="#f75028" class="colorf75028 svgShape"/><path fill="#f75028" d="M118.44 928.33a2 2 0 0 1-1.91-1.39l-19.11-59.63a2 2 0 0 1 1.3-2.52 2 2 0 0 1 2.51 1.3l18.5 57.73 184-59L261 731.61 77 790.55l15.77 49.2A2 2 0 0 1 89 841l-16.37-51.1a2 2 0 0 1 1.29-2.52l187.78-60.19a2 2 0 0 1 2.51 1.29l43.92 137.07a2 2 0 0 1-1.3 2.52c-196.5 62.93-187.91 60.26-188.39 60.26Z" class="colorf75028 svgShape"/><path fill="#f75028" d="M175.41 848.52 73.53 791a2 2 0 1 1 2-3.48L177.37 845A24 24 0 0 0 211 834.26l49.48-106a2 2 0 1 1 3.63 1.69L214.64 836a28.09 28.09 0 0 1-39.23 12.52Z" class="colorf75028 svgShape"/><path fill="#f75028" d="M306.22 868.16c-.81 0 5 3.15-86.37-48.47a2 2 0 1 1 2-3.48l85.39 48.21a2 2 0 0 1-1.02 3.74ZM118.43 928.33a2 2 0 0 1-1.81-2.85l41.47-88.85a2 2 0 1 1 3.62 1.69l-41.47 88.85a2 2 0 0 1-1.81 1.16ZM352.67 285.31l-88.07-22.66v-65.4h65.41l22.66 88.06z" class="colorf75028 svgShape"/><circle cx="225.71" cy="158.36" r="126.96" fill="#f75028" class="colorf75028 svgShape"/><path fill="#ffffff" d="M250.52 188.75c6.36-.31 3.46-9.86 10.51-16.66s50.89 17.42 30.93 38.84-44.54 26.47-90.49-19-56.28-66.29-37.6-92.52S214.31 114 209.82 125s-16.35 9.67-16.31 13.77c.12 12.96 34.56 51.08 57.01 49.98Z" class="colorfff svgShape"/></g></svg>